HIERARCHY
ROOT Hips
{
	OFFSET 0.000000 0.000000 0.000000 
	CHANNELS 6 Xposition Yposition Zposition Yrotation Zrotation Xrotation 
	JOINT Lumbar
	{
		OFFSET 0.000000 0.000000 0.000000 
		CHANNELS 3 Zrotation Xrotation Yrotation
		JOINT Neck
		{
			OFFSET 0.000000 0.445665 0.000000 
			CHANNELS 3 Zrotation Xrotation Yrotation
			End Site
			{
				OFFSET 0.000000 0.227535 0.000000 
			}
		}
		JOINT RightShoulder
		{
			OFFSET 0.019635 0.377685 0.194865 
			CHANNELS 3 Zrotation Xrotation Yrotation
			JOINT RightElbow
			{
				OFFSET 0.000000 -0.243375 0.000000 
				CHANNELS 2 Zrotation Yrotation
				JOINT RightWrist
				{
					OFFSET 0.000000 -0.264825 0.000000 
					CHANNELS 2 Zrotation Xrotation
					End Site
					{
						OFFSET 0.006600 -0.176220 0.000990 
					}
				}
			}
		}
		JOINT LeftShoulder
		{
			OFFSET 0.019635 0.377685 -0.194865 
			CHANNELS 3 Zrotation Xrotation Yrotation
			JOINT LeftElbow
			{
				OFFSET 0.000000 -0.243375 0.000000 
				CHANNELS 2 Zrotation Yrotation
				JOINT LeftWrist
				{
					OFFSET 0.000000 -0.264825 0.000000 
					CHANNELS 2 Zrotation Xrotation
					End Site
					{
						OFFSET 0.006600 -0.176220 -0.000990 
					}
				}
			}
		}
	}
	JOINT RightHip
	{
		OFFSET 0.052140 -0.069960 0.075570 
		CHANNELS 3 Zrotation Xrotation Yrotation
		JOINT RightKnee
		{
			OFFSET 0.000000 -0.402270 0.000000 
			CHANNELS 1 Zrotation
			JOINT RightAnkle
			{
				OFFSET 0.000000 -0.404085 0.000000 
				CHANNELS 3 Zrotation Xrotation Yrotation
				End Site
				{
					OFFSET 0.204105 -0.089430 0.008415 
				}
			}
		}
	}
	JOINT LeftHip
	{
		OFFSET 0.052140 -0.069960 -0.075570 
		CHANNELS 3 Zrotation Xrotation Yrotation
		JOINT LeftKnee
		{
			OFFSET 0.000000 -0.402270 0.000000 
			CHANNELS 1 Zrotation
			JOINT LeftAnkle
			{
				OFFSET 0.000000 -0.404085 0.000000 
				CHANNELS 3 Zrotation Xrotation Yrotation
				End Site
				{
					OFFSET 0.204105 -0.089430 -0.008415 
				}
			}
		}
	}
}
MOTION
Frames: 14
Frame Time: 0.02
0.00095 0.00021 0.00168 17.74848 -33.00333 -3.24466 56.70993 -0.1582 1.99207 -6.72522 -2.15541 -1.22361 137.6289 -78.177 -69.49916 14.41409 77.29559 3.46479 -8.54135 148.68538 76.68352 85.52826 9.06573 -69.97406 5.09995 8.75729 49.15017 -3.89248 -15.34302 -19.8203 -7.22011 -3.02805 -3.75799 50.35191 7.34942 13.6075 -24.02891 -7.88663 3.24688 3.88238
0.00143 0.00024 0.00148 17.69923 -33.02588 -3.30688 56.80443 -0.14262 1.90058 -6.74229 -2.00717 -1.22521 136.50446 -78.15603 -70.36839 14.2584 77.28704 3.46284 -8.50163 148.94195 76.66704 85.42693 9.10452 -69.97947 5.09277 8.76534 49.14151 -3.80842 -15.16577 -19.80109 -7.22236 -3.04387 -3.7641 50.35296 7.34159 13.33802 -24.02748 -7.89096 3.26812 3.89353
0.00192 0.00027 0.00129 17.65015 -33.04836 -3.36893 56.8987 -0.12705 1.80925 -6.75935 -1.85931 -1.22681 135.38227 -78.13507 -71.23576 14.103 77.27849 3.46084 -8.46203 149.19759 76.65067 85.326 9.14327 -69.98482 5.08559 8.77351 49.13284 -3.72454 -14.98861 -19.78193 -7.22462 -3.05968 -3.77021 50.35398 7.33375 13.06935 -24.02605 -7.89528 3.28929 3.90465
0.0024 0.0003 0.00109 17.60105 -33.07084 -3.43096 56.99293 -0.11151 1.71803 -6.77637 -1.71151 -1.22841 134.26108 -78.11416 -72.10246 13.94776 77.26997 3.45889 -8.42244 149.45337 76.63425 85.22497 9.18196 -69.99022 5.07843 8.78156 49.12421 -3.64071 -14.8118 -19.76277 -7.22687 -3.07546 -3.77631 50.35502 7.32593 12.8007 -24.02462 -7.8996 3.31047 3.91576
0.00288 0.00033 0.00089 17.55178 -33.09339 -3.49316 57.08735 -0.09598 1.62669 -6.7934 -1.56338 -1.23002 133.13817 -78.09326 -72.97068 13.79229 77.26147 3.45702 -8.38271 149.71005 76.6177 85.12357 9.22065 -69.99567 5.07127 8.78944 49.11557 -3.55674 -14.63518 -19.74356 -7.22908 -3.09121 -3.78238 50.35611 7.31812 12.53127 -24.02318 -7.90394 3.33169 3.92691
0.00336 0.00037 0.00069 17.50313 -33.11572 -3.55488 57.1813 -0.08032 1.53541 -6.81053 -1.41609 -1.23161 132.0176 -78.07218 -73.83619 13.63705 77.25282 3.45474 -8.3434 149.96345 76.60169 85.02367 9.25954 -70.00079 5.06404 8.79821 49.10685 -3.47309 -14.45696 -19.7245 -7.23146 -3.10713 -3.78858 50.35697 7.31022 12.26423 -24.02177 -7.90818 3.35275 3.93795
0.00385 0.0004 0.0005 17.45325 -33.13847 -3.6175 57.27611 -0.06493 1.4441 -6.82742 -1.26725 -1.23322 130.89344 -78.05147 -74.70626 13.48152 77.24447 3.45328 -8.3033 150.22337 76.58462 84.92073 9.298 -70.00662 5.05698 8.8052 49.09834 -3.38881 -14.28185 -19.70517 -7.23352 -3.12273 -3.79454 50.3583 7.30252 11.99262 -24.0203 -7.91263 3.37414 3.9492
0.00433 0.00043 0.0003 17.40455 -33.16081 -3.67927 57.3701 -0.0493 1.35283 -6.84455 -1.11988 -1.23482 129.77281 -78.03047 -75.57201 13.32627 77.23586 3.45108 -8.2639 150.47691 76.56851 84.82082 9.33681 -70.01172 5.04971 8.81377 49.08958 -3.30524 -14.10445 -19.68608 -7.23584 -3.13858 -3.80069 50.35917 7.29463 11.72532 -24.01889 -7.91688 3.39521 3.96025
0.0048 0.00046 0.0001 17.35709 -33.18278 -3.74009 57.46323 -0.03333 1.2615 -6.86193 -0.97405 -1.2364 128.65494 -78.00887 -76.43342 13.17119 77.22689 3.44789 -8.22547 150.72419 76.55368 84.72368 9.37627 -70.01623 5.04242 8.82455 49.08071 -3.222 -13.92183 -19.66729 -7.23863 -3.15492 -3.80721 50.35958 7.2865 11.4628 -24.01755 -7.92091 3.41596 3.9711
0.0053 0.00049 -7e-05 17.30189 -33.20725 -3.80664 57.56178 -0.01919 1.17019 -6.87772 -0.81859 -1.23805 127.51644 -77.99 -77.32266 13.01462 77.21984 3.45013 -8.18181 151.01214 76.53177 84.60781 9.41264 -70.02504 5.03594 8.82346 49.07309 -3.13525 -13.76195 -19.64679 -7.23915 -3.169 -3.81199 50.36297 7.27972 11.17131 -24.01578 -7.92629 3.43873 3.98321
0.00576 0.00053 -0.00031 17.26342 -33.22622 -3.86096 57.64855 -0.00125 1.07905 -6.89696 -0.68397 -1.23957 126.4247 -77.96582 -78.15121 12.86158 77.20883 3.44111 -8.14895 151.2113 76.52461 84.53321 9.4551 -70.0242 5.02732 8.84686 49.06241 -3.05691 -13.55878 -19.62992 -7.24418 -3.18747 -3.82021 50.35984 7.27013 10.94189 -24.01494 -7.92875 3.45713 3.9926
0.00611 0.00057 -0.00075 17.26792 -33.23155 -3.88259 57.70547 0.02766 0.98665 -6.92513 -0.6028 -1.24071 125.43393 -77.92348 -78.82837 12.71488 77.18618 3.3992 -8.14807 151.18699 76.56019 84.55583 9.51776 -70.00158 5.01541 8.94242 49.04675 -2.99356 -13.19613 -19.62289 -7.26407 -3.22132 -3.83991 50.34041 7.25242 10.87679 -24.0166 -7.92375 3.46435 3.99491
0.00641 0.00062 -0.00126 17.28978 -33.23103 -3.89177 57.75004 0.06028 0.89479 -6.95692 -0.54329 -1.24171 124.49421 -77.87657 -79.44171 12.57228 77.15981 3.34633 -8.15764 151.06846 76.61032 84.62087 9.58569 -69.96846 5.00035 9.06151 49.02737 -2.94009 -12.79704 -19.61956 -7.28806 -3.25901 -3.86272 50.31409 7.23193 10.87513 -24.01921 -7.91573 3.46702 3.99441
0.00673 0.00067 -0.00173 17.30562 -33.23232 -3.90613 57.79877 0.09089 0.80375 -6.98738 -0.47622 -1.24276 123.5502 -77.83395 -80.07448 12.43008 77.13554 3.2998 -8.16085 150.98157 76.6521 84.67949 9.64921 -69.93703 4.9857 9.1668 49.00751 -2.88748 -12.44181 -19.61462 -7.3085 -3.29273 -3.88275 50.28991 7.21299 10.84837 -24.02139 -7.90871 3.47122 3.99495
